<svg width="42" height="78" viewBox="0 0 42 78" fill="none" xmlns="http://www.w3.org/2000/svg">
<path d="M33.3009 42.6449C32.9808 42.3342 32.6043 42.0235 32.1712 41.7572C30.9661 41.0026 29.4033 40.5366 28.01 41.3799C20.3843 45.9296 14.6414 51.8774 14.6414 51.8774C14.6414 51.8774 13.7376 52.2769 13.9824 50.1019C14.2272 47.9048 23.4157 21.9829 23.4157 21.9829C23.4157 21.9829 24.7338 18.0324 24.8091 14.7478C24.8091 14.7478 24.8091 0.876899 20.0453 0.477417C19.9512 0.477417 19.8571 0.477417 19.7629 0.477417C19.7629 0.477417 19.3863 0.499608 18.8215 0.610576C18.6708 0.632769 18.5202 0.677157 18.3507 0.743737C17.8612 0.876898 17.3151 1.09883 16.7691 1.45393C16.6185 1.5427 16.336 1.76463 16.1666 1.8978C16.1477 1.91999 16.1289 1.91999 16.1289 1.94218C16.0913 1.96437 16.0348 2.03096 15.9971 2.07534C15.9595 2.11973 15.79 2.34166 15.7147 2.43044C15.6582 2.51921 15.5829 2.60798 15.5076 2.71895C15.4699 2.78553 15.4134 2.85211 15.3758 2.91869C15.3193 3.00747 15.2628 3.09624 15.2063 3.18501C14.9803 3.54011 14.3402 4.9383 14.1519 5.44874C14.0954 5.5819 14.0389 5.73726 13.9824 5.89261C13.5493 7.04667 13.0786 8.40047 12.6456 9.6655C11.2334 13.8379 9.1622 20.052 7.22281 25.9777C4.8127 33.3015 2.60971 40.2259 2.04484 42.534C1.367 45.3303 0.764474 48.5484 0.387895 52.0106C0.0113152 55.4727 -0.120486 59.1568 0.12429 62.8853C0.237264 64.6164 0.331407 65.9924 0.425552 67.1243C0.726816 70.875 0.990422 71.8293 1.47998 73.2719C1.8189 74.2706 2.6662 75.8685 4.13486 76.6897C5.3964 77.3998 7.12867 77.5552 9.40697 76.3346C11.1581 75.3803 13.4175 74.093 15.7712 72.6283C20.0642 69.965 24.6396 66.7026 27.0685 63.9506C30.8343 59.6895 33.3951 55.5615 34.1859 51.0341C34.4307 49.6137 34.5625 48.2377 34.5437 46.9727C34.5437 46.3734 34.506 45.7964 34.4495 45.2638C34.3554 44.7311 33.7528 43.0888 33.3009 42.6449Z" fill="#E6951B"/>
<path d="M34.1486 38.4284C38.4849 38.4284 42.0002 31.9499 42.0002 23.9583C42.0002 15.9666 38.4849 9.48816 34.1486 9.48816C29.8122 9.48816 26.2969 15.9666 26.2969 23.9583C26.2969 31.9499 29.8122 38.4284 34.1486 38.4284Z" fill="#D3CED9"/>
</svg>
