<svg width="587" height="392" viewBox="0 0 587 392" fill="none" xmlns="http://www.w3.org/2000/svg">
<path fill-rule="evenodd" clip-rule="evenodd" d="M562.161 266.948C524.46 322.41 425.11 314.893 355.817 342.879C320.633 357.089 295.542 384.428 256.765 390.29C219.028 395.996 181.256 386.352 144.923 374.762C107.334 362.772 73.9036 345.926 44.812 322.68C6.72131 292.244 -28.2069 260.628 -48.312 220.359C-81.8844 153.117 -175.057 59.8877 -109.138 14.3338C-37.5692 -35.1238 66.1773 62.3704 159.83 76.5215C204.082 83.2082 245.964 74.6251 290.72 74.7533C374.561 74.9934 471.579 31.8855 536.142 77.5995C596.731 120.5 600.163 211.042 562.161 266.948Z" fill="#FAD59E" fill-opacity="0.3"/>
</svg>
