<svg width="623" height="444" viewBox="0 0 623 444" fill="none" xmlns="http://www.w3.org/2000/svg">
<path fill-rule="evenodd" clip-rule="evenodd" d="M486.504 443.755C413.04 443.563 356.831 413.89 291.88 396.216C223.422 377.588 143.593 370.388 94.6472 337.127C39.8304 299.877 -13.5695 251.412 4.4464 200.892C22.456 150.389 104.808 111.503 183.824 87.0544C249.294 66.797 323.635 85.5849 395.508 79.8902C444.287 76.0253 489.144 67.2007 536.88 59.0807C632.881 42.7506 737.922 -22.169 817.837 8.05078C890.242 35.4302 825.723 109.748 807.826 161.538C795.199 198.077 745.67 226.476 729.837 262.709C710.153 307.754 754.783 360.108 704.806 397.292C655.284 434.138 563.694 443.956 486.504 443.755Z" fill="#D3CED9" fill-opacity="0.3"/>
</svg>
