<svg width="59" height="60" viewBox="0 0 59 60" fill="none" xmlns="http://www.w3.org/2000/svg">
<path d="M11.8001 16.5C10.8269 16.5 9.96376 16.9792 9.42645 17.7183C9.64897 17.7927 9.86117 17.9117 10.05 18.0763L26.8604 32.7294C28.3794 34.0535 30.6209 34.0535 32.1399 32.7294L48.9503 18.0763C49.1391 17.9117 49.3513 17.7927 49.5738 17.7184C49.0365 16.9793 48.1733 16.5 47.2001 16.5H11.8001Z" fill="#FAFAFA"/>
<path d="M50.1501 21.9695L34.5397 35.5766C31.6398 38.1044 27.3605 38.1044 24.4606 35.5766L8.8501 21.9694V40.5C8.8501 42.1569 10.1709 43.5 11.8001 43.5H47.2001C48.8293 43.5 50.1501 42.1569 50.1501 40.5V21.9695Z" fill="#FAFAFA"/>
</svg>
