<svg width="51" height="52" viewBox="0 0 51 52" fill="none" xmlns="http://www.w3.org/2000/svg">
<path d="M18.7883 45.5C13.6325 45.5 8.82646 43.971 4.78125 41.3329C8.21577 41.5595 14.2769 41.0168 18.047 37.3503C12.3756 37.0849 9.81792 32.65 9.48431 30.7547C9.96619 30.9442 12.2644 31.1717 13.5618 30.641C7.03784 28.9731 6.03701 23.1356 6.25942 21.3541C7.48265 22.2259 9.55844 22.5292 10.3739 22.4533C4.29483 18.0184 6.48182 11.347 7.55679 9.90657C11.9194 16.0691 18.4575 19.5302 26.5461 19.7227C26.3936 19.0407 26.3131 18.3307 26.3131 17.6014C26.3131 12.3677 30.462 8.125 35.58 8.125C38.2541 8.125 40.6636 9.28322 42.355 11.1359C44.1419 10.7089 46.8312 9.70949 48.1459 8.84521C47.4833 11.2712 45.4202 13.2949 44.1722 14.045C44.1826 14.0705 44.1621 14.0194 44.1722 14.045C45.2684 13.8759 48.2345 13.2947 49.4062 12.4842C48.8268 13.847 46.6395 16.1131 44.8445 17.3817C45.1785 32.3993 33.9094 45.5 18.7883 45.5Z" fill="#FAFAFA"/>
</svg>
