<svg width="651" height="456" viewBox="0 0 651 456" fill="none" xmlns="http://www.w3.org/2000/svg">
<path fill-rule="evenodd" clip-rule="evenodd" d="M5.24879 181.096C23.7565 251.203 130.129 283.282 191.865 338.668C223.213 366.79 239.118 403.939 277.339 425.198C314.534 445.887 357.52 451.342 399.735 454.29C443.41 457.34 484.569 453.911 523.605 442.397C574.716 427.321 622.974 409.813 659.023 377.809C719.221 324.368 851.282 268.834 799.647 197.337C743.587 119.713 598.906 175.277 495.985 152.057C447.354 141.085 406.917 115.887 360.218 98.1992C272.738 65.0647 187.771 -16.3808 103.341 3.3364C24.1078 21.8399 -13.4072 110.427 5.24879 181.096Z" fill="#D3CED9" fill-opacity="0.3"/>
</svg>
